<svg width="18" height="15" viewBox="0 0 18 15" fill="none" xmlns="http://www.w3.org/2000/svg">
<path d="M1 6.36426C0.447715 6.36426 4.82823e-08 6.81197 0 7.36426C-4.82823e-08 7.91654 0.447715 8.36426 1 8.36426L1 7.36426L1 6.36426ZM17.7071 8.07137C18.0976 7.68084 18.0976 7.04768 17.7071 6.65715L11.3431 0.293191C10.9526 -0.0973335 10.3195 -0.0973336 9.92893 0.293191C9.53841 0.683715 9.53841 1.31688 9.92893 1.7074L15.5858 7.36426L9.92893 13.0211C9.53841 13.4116 9.53841 14.0448 9.92893 14.4353C10.3195 14.8259 10.9526 14.8259 11.3431 14.4353L17.7071 8.07137ZM1 7.36426L1 8.36426L17 8.36426L17 7.36426L17 6.36426L1 6.36426L1 7.36426Z" fill="#96908C"/>
</svg>
