<svg width="11" height="11" viewBox="0 0 11 11" fill="none" xmlns="http://www.w3.org/2000/svg">
<path d="M0.220481 8.73586C-0.0734467 9.02979 -0.0734467 9.50634 0.220481 9.80027C0.51441 10.0942 0.990961 10.0942 1.28489 9.80027L0.752686 9.26807L0.220481 8.73586ZM10.0206 0.752802C10.0206 0.337125 9.68363 0.000151689 9.26795 0.000151678L2.4941 0.000151594C2.07842 0.000151594 1.74145 0.337124 1.74145 0.752802C1.74145 1.16848 2.07842 1.50545 2.4941 1.50545H8.5153V7.52665C8.5153 7.94233 8.85227 8.2793 9.26795 8.2793C9.68363 8.2793 10.0206 7.94233 10.0206 7.52665L10.0206 0.752802ZM0.752686 9.26807L1.28489 9.80027L9.80015 1.28501L9.26795 0.752802L8.73575 0.220598L0.220481 8.73586L0.752686 9.26807Z" fill="#77726F"/>
</svg>
