<svg width="134" height="28" viewBox="0 0 134 28" fill="none" xmlns="http://www.w3.org/2000/svg">
<rect opacity="0.2" width="133.242" height="28" rx="6" fill="#0099FF"/>
<rect x="6.99243" y="6" width="16" height="16" rx="3" fill="#0099FF"/>
<path d="M119.326 9.77246V18.4997H117.783V9.77246H119.326Z" fill="#0099FF"/>
<path d="M113.697 18.6277C113.058 18.6277 112.504 18.487 112.035 18.2058C111.567 17.9245 111.203 17.5311 110.945 17.0254C110.689 16.5197 110.561 15.9288 110.561 15.2527C110.561 14.5765 110.689 13.9842 110.945 13.4757C111.203 12.9672 111.567 12.5723 112.035 12.291C112.504 12.0098 113.058 11.8691 113.697 11.8691C114.337 11.8691 114.891 12.0098 115.359 12.291C115.828 12.5723 116.19 12.9672 116.446 13.4757C116.705 13.9842 116.834 14.5765 116.834 15.2527C116.834 15.9288 116.705 16.5197 116.446 17.0254C116.19 17.5311 115.828 17.9245 115.359 18.2058C114.891 18.487 114.337 18.6277 113.697 18.6277ZM113.706 17.3919C114.053 17.3919 114.342 17.2967 114.575 17.1064C114.808 16.9132 114.981 16.6547 115.095 16.3308C115.212 16.0069 115.27 15.6461 115.27 15.2484C115.27 14.8478 115.212 14.4856 115.095 14.1618C114.981 13.8351 114.808 13.5751 114.575 13.3819C114.342 13.1887 114.053 13.0922 113.706 13.0922C113.351 13.0922 113.055 13.1887 112.82 13.3819C112.587 13.5751 112.412 13.8351 112.295 14.1618C112.182 14.4856 112.125 14.8478 112.125 15.2484C112.125 15.6461 112.182 16.0069 112.295 16.3308C112.412 16.6547 112.587 16.9132 112.82 17.1064C113.055 17.2967 113.351 17.3919 113.706 17.3919Z" fill="#0099FF"/>
<path d="M106.756 18.6277C106.117 18.6277 105.563 18.487 105.095 18.2058C104.626 17.9245 104.262 17.5311 104.004 17.0254C103.748 16.5197 103.62 15.9288 103.62 15.2527C103.62 14.5765 103.748 13.9842 104.004 13.4757C104.262 12.9672 104.626 12.5723 105.095 12.291C105.563 12.0098 106.117 11.8691 106.756 11.8691C107.396 11.8691 107.95 12.0098 108.418 12.291C108.887 12.5723 109.249 12.9672 109.505 13.4757C109.764 13.9842 109.893 14.5765 109.893 15.2527C109.893 15.9288 109.764 16.5197 109.505 17.0254C109.249 17.5311 108.887 17.9245 108.418 18.2058C107.95 18.487 107.396 18.6277 106.756 18.6277ZM106.765 17.3919C107.112 17.3919 107.401 17.2967 107.634 17.1064C107.867 16.9132 108.041 16.6547 108.154 16.3308C108.271 16.0069 108.329 15.6461 108.329 15.2484C108.329 14.8478 108.271 14.4856 108.154 14.1618C108.041 13.8351 107.867 13.5751 107.634 13.3819C107.401 13.1887 107.112 13.0922 106.765 13.0922C106.41 13.0922 106.114 13.1887 105.879 13.3819C105.646 13.5751 105.471 13.8351 105.354 14.1618C105.241 14.4856 105.184 14.8478 105.184 15.2484C105.184 15.6461 105.241 16.0069 105.354 16.3308C105.471 16.6547 105.646 16.9132 105.879 17.1064C106.114 17.2967 106.41 17.3919 106.765 17.3919Z" fill="#0099FF"/>
<path d="M103.042 11.9549V13.1481H99.2788V11.9549H103.042ZM100.208 10.3867H101.75V16.5316C101.75 16.739 101.782 16.8981 101.844 17.0089C101.909 17.1168 101.995 17.1907 102.1 17.2305C102.205 17.2702 102.321 17.2901 102.449 17.2901C102.546 17.2901 102.634 17.283 102.713 17.2688C102.796 17.2546 102.858 17.2418 102.901 17.2305L103.161 18.4364C103.079 18.4648 102.961 18.4961 102.807 18.5302C102.657 18.5643 102.472 18.5842 102.253 18.5898C101.867 18.6012 101.519 18.543 101.209 18.4151C100.9 18.2844 100.654 18.0827 100.472 17.81C100.293 17.5373 100.205 17.1964 100.208 16.7873V10.3867Z" fill="#0099FF"/>
<path d="M96.2264 11.9549V13.1481H92.4636V11.9549H96.2264ZM93.3926 10.3867H94.9352V16.5316C94.9352 16.739 94.9665 16.8981 95.029 17.0089C95.0943 17.1168 95.1795 17.1907 95.2846 17.2305C95.3898 17.2702 95.5062 17.2901 95.6341 17.2901C95.7307 17.2901 95.8187 17.283 95.8983 17.2688C95.9807 17.2546 96.0432 17.2418 96.0858 17.2305L96.3457 18.4364C96.2633 18.4648 96.1454 18.4961 95.992 18.5302C95.8415 18.5643 95.6568 18.5842 95.4381 18.5898C95.0517 18.6012 94.7037 18.543 94.394 18.4151C94.0844 18.2844 93.8386 18.0827 93.6568 17.81C93.4778 17.5373 93.3898 17.1964 93.3926 16.7873V10.3867Z" fill="#0099FF"/>
<path d="M88.3109 18.6319C87.8962 18.6319 87.5226 18.5581 87.1902 18.4103C86.8607 18.2598 86.5993 18.0382 86.4061 17.7456C86.2158 17.4529 86.1206 17.0922 86.1206 16.6632C86.1206 16.2939 86.1888 15.9885 86.3252 15.747C86.4615 15.5055 86.6476 15.3123 86.8834 15.1674C87.1192 15.0226 87.3848 14.9132 87.6803 14.8393C87.9786 14.7626 88.2868 14.7072 88.605 14.6731C88.9885 14.6333 89.2996 14.5978 89.5382 14.5666C89.7769 14.5325 89.9502 14.4814 90.0581 14.4132C90.1689 14.3422 90.2243 14.2328 90.2243 14.085V14.0595C90.2243 13.7385 90.1291 13.4899 89.9388 13.3137C89.7484 13.1376 89.4743 13.0495 89.1163 13.0495C88.7385 13.0495 88.4388 13.1319 88.2172 13.2967C87.9984 13.4615 87.8507 13.6561 87.774 13.8805L86.3337 13.676C86.4473 13.2782 86.6348 12.9458 86.8962 12.6788C87.1575 12.4089 87.4771 12.2072 87.855 12.0737C88.2328 11.9373 88.6504 11.8691 89.1078 11.8691C89.4232 11.8691 89.7371 11.9061 90.0496 11.9799C90.3621 12.0538 90.6476 12.176 90.9061 12.3464C91.1646 12.514 91.372 12.7427 91.5283 13.0325C91.6874 13.3223 91.7669 13.6845 91.7669 14.1191V18.4998H90.284V17.6007H90.2328C90.1391 17.7825 90.007 17.9529 89.8365 18.112C89.6689 18.2683 89.4573 18.3947 89.2016 18.4913C88.9487 18.585 88.6519 18.6319 88.3109 18.6319ZM88.7115 17.4984C89.0212 17.4984 89.2896 17.4373 89.5169 17.3152C89.7442 17.1902 89.9189 17.0254 90.0411 16.8208C90.1661 16.6163 90.2286 16.3933 90.2286 16.1518V15.3805C90.1803 15.4203 90.0979 15.4572 89.9814 15.4913C89.8678 15.5254 89.7399 15.5552 89.5979 15.5808C89.4558 15.6064 89.3152 15.6291 89.176 15.649C89.0368 15.6689 88.9161 15.6859 88.8138 15.7001C88.5837 15.7314 88.3777 15.7825 88.1959 15.8535C88.0141 15.9245 87.8706 16.024 87.7655 16.1518C87.6604 16.2768 87.6078 16.4387 87.6078 16.6376C87.6078 16.9217 87.7115 17.1362 87.9189 17.2811C88.1263 17.426 88.3905 17.4984 88.7115 17.4984Z" fill="#0099FF"/>
<path d="M82.5718 18.6277C81.9156 18.6277 81.3488 18.4913 80.8715 18.2186C80.3971 17.943 80.032 17.5538 79.7763 17.051C79.5207 16.5453 79.3928 15.9501 79.3928 15.2654C79.3928 14.5922 79.5207 14.0012 79.7763 13.4927C80.0349 12.9814 80.3957 12.5836 80.8587 12.2995C81.3218 12.0126 81.8658 11.8691 82.4908 11.8691C82.8942 11.8691 83.2749 11.9345 83.6329 12.0652C83.9937 12.193 84.3119 12.3919 84.5874 12.6618C84.8658 12.9316 85.0846 13.2754 85.2437 13.693C85.4028 14.1078 85.4823 14.6021 85.4823 15.176V15.649H80.1173V14.6092H84.0036C84.0008 14.3137 83.9369 14.051 83.8119 13.8208C83.6869 13.5879 83.5121 13.4047 83.2877 13.2711C83.0661 13.1376 82.8076 13.0708 82.5121 13.0708C82.1968 13.0708 81.9198 13.1475 81.6812 13.301C81.4425 13.4515 81.2565 13.6504 81.1229 13.8975C80.9923 14.1419 80.9255 14.4103 80.9227 14.7029V15.6106C80.9227 15.9913 80.9923 16.318 81.1315 16.5907C81.2707 16.8606 81.4653 17.068 81.7153 17.2129C81.9653 17.3549 82.2579 17.426 82.5931 17.426C82.8175 17.426 83.0207 17.3947 83.2025 17.3322C83.3843 17.2669 83.542 17.1717 83.6755 17.0467C83.809 16.9217 83.9099 16.7669 83.9781 16.5822L85.4184 16.7441C85.3275 17.1248 85.1542 17.4572 84.8985 17.7413C84.6457 18.0225 84.3218 18.2413 83.9269 18.3975C83.532 18.551 83.0803 18.6277 82.5718 18.6277Z" fill="#0099FF"/>
<path d="M75.5459 18.5005V11.9551H77.0416V13.046H77.1098C77.2291 12.6681 77.4337 12.377 77.7235 12.1724C78.0161 11.965 78.3499 11.8613 78.7249 11.8613C78.8101 11.8613 78.9053 11.8656 79.0104 11.8741C79.1183 11.8798 79.2078 11.8897 79.2789 11.9039V13.323C79.2135 13.3002 79.1098 13.2804 78.9678 13.2633C78.8286 13.2434 78.6936 13.2335 78.5629 13.2335C78.2817 13.2335 78.0289 13.2946 77.8044 13.4167C77.5828 13.536 77.4081 13.7022 77.2803 13.9153C77.1524 14.1284 77.0885 14.3741 77.0885 14.6525V18.5005H75.5459Z" fill="#0099FF"/>
<path d="M71.2525 21.0907C70.6985 21.0907 70.2227 21.0154 69.825 20.8649C69.4272 20.7172 69.1076 20.5183 68.8661 20.2683C68.6247 20.0183 68.4571 19.7413 68.3633 19.4373L69.7525 19.1007C69.815 19.2285 69.9059 19.3549 70.0252 19.4799C70.1446 19.6078 70.3051 19.7129 70.5068 19.7953C70.7113 19.8805 70.9684 19.9231 71.2781 19.9231C71.7156 19.9231 72.0778 19.8166 72.3647 19.6035C72.6517 19.3933 72.7951 19.0467 72.7951 18.5637V17.3237H72.7184C72.6389 17.4828 72.5224 17.6461 72.369 17.8137C72.2184 17.9814 72.0181 18.122 71.7681 18.2356C71.521 18.3493 71.2099 18.4061 70.8349 18.4061C70.3321 18.4061 69.8761 18.2882 69.467 18.0524C69.0607 17.8137 68.7369 17.4586 68.4954 16.987C68.2568 16.5126 68.1375 15.9189 68.1375 15.2058C68.1375 14.487 68.2568 13.8805 68.4954 13.3862C68.7369 12.889 69.0622 12.5126 69.4713 12.2569C69.8804 11.9984 70.3363 11.8691 70.8392 11.8691C71.2227 11.8691 71.538 11.9345 71.7852 12.0652C72.0352 12.193 72.234 12.3478 72.3818 12.5297C72.5295 12.7086 72.6417 12.8777 72.7184 13.0368H72.8036V11.9544H74.325V18.6064C74.325 19.166 74.1914 19.6291 73.9244 19.9956C73.6573 20.362 73.2923 20.6362 72.8292 20.818C72.3661 20.9998 71.8406 21.0907 71.2525 21.0907ZM71.2653 17.1958C71.592 17.1958 71.8704 17.1163 72.1005 16.9572C72.3306 16.7981 72.5053 16.5694 72.6247 16.2711C72.744 15.9728 72.8036 15.6149 72.8036 15.1973C72.8036 14.7853 72.744 14.4245 72.6247 14.1149C72.5082 13.8052 72.3349 13.5652 72.1048 13.3947C71.8775 13.2214 71.5977 13.1348 71.2653 13.1348C70.9215 13.1348 70.6346 13.2243 70.4045 13.4032C70.1744 13.5822 70.0011 13.8279 69.8846 14.1404C69.7681 14.4501 69.7099 14.8024 69.7099 15.1973C69.7099 15.5978 69.7681 15.9487 69.8846 16.2498C70.0039 16.5481 70.1786 16.7811 70.4088 16.9487C70.6417 17.1135 70.9272 17.1958 71.2653 17.1958Z" fill="#0099FF"/>
<path d="M61.1422 18.6319C60.7275 18.6319 60.3539 18.5581 60.0215 18.4103C59.692 18.2598 59.4306 18.0382 59.2374 17.7456C59.0471 17.4529 58.9519 17.0922 58.9519 16.6632C58.9519 16.2939 59.0201 15.9885 59.1564 15.747C59.2928 15.5055 59.4789 15.3123 59.7147 15.1674C59.9505 15.0226 60.2161 14.9132 60.5116 14.8393C60.8099 14.7626 61.1181 14.7072 61.4363 14.6731C61.8198 14.6333 62.1309 14.5978 62.3695 14.5666C62.6082 14.5325 62.7814 14.4814 62.8894 14.4132C63.0002 14.3422 63.0556 14.2328 63.0556 14.085V14.0595C63.0556 13.7385 62.9604 13.4899 62.7701 13.3137C62.5797 13.1376 62.3056 13.0495 61.9476 13.0495C61.5698 13.0495 61.2701 13.1319 61.0485 13.2967C60.8297 13.4615 60.682 13.6561 60.6053 13.8805L59.165 13.676C59.2786 13.2782 59.4661 12.9458 59.7275 12.6788C59.9888 12.4089 60.3084 12.2072 60.6863 12.0737C61.0641 11.9373 61.4817 11.8691 61.9391 11.8691C62.2545 11.8691 62.5684 11.9061 62.8809 11.9799C63.1934 12.0538 63.4789 12.176 63.7374 12.3464C63.9959 12.514 64.2033 12.7427 64.3596 13.0325C64.5187 13.3223 64.5982 13.6845 64.5982 14.1191V18.4998H63.1153V17.6007H63.0641C62.9704 17.7825 62.8383 17.9529 62.6678 18.112C62.5002 18.2683 62.2886 18.3947 62.0329 18.4913C61.78 18.585 61.4832 18.6319 61.1422 18.6319ZM61.5428 17.4984C61.8525 17.4984 62.1209 17.4373 62.3482 17.3152C62.5755 17.1902 62.7502 17.0254 62.8724 16.8208C62.9974 16.6163 63.0599 16.3933 63.0599 16.1518V15.3805C63.0116 15.4203 62.9292 15.4572 62.8127 15.4913C62.6991 15.5254 62.5712 15.5552 62.4292 15.5808C62.2871 15.6064 62.1465 15.6291 62.0073 15.649C61.8681 15.6689 61.7474 15.6859 61.6451 15.7001C61.415 15.7314 61.209 15.7825 61.0272 15.8535C60.8454 15.9245 60.7019 16.024 60.5968 16.1518C60.4917 16.2768 60.4391 16.4387 60.4391 16.6376C60.4391 16.9217 60.5428 17.1362 60.7502 17.2811C60.9576 17.426 61.2218 17.4984 61.5428 17.4984Z" fill="#0099FF"/>
<path d="M52.5565 18.6277C51.9173 18.6277 51.3633 18.487 50.8946 18.2058C50.4258 17.9245 50.0622 17.5311 49.8037 17.0254C49.548 16.5197 49.4202 15.9288 49.4202 15.2527C49.4202 14.5765 49.548 13.9842 49.8037 13.4757C50.0622 12.9672 50.4258 12.5723 50.8946 12.291C51.3633 12.0098 51.9173 11.8691 52.5565 11.8691C53.1957 11.8691 53.7497 12.0098 54.2185 12.291C54.6872 12.5723 55.0494 12.9672 55.3051 13.4757C55.5636 13.9842 55.6929 14.5765 55.6929 15.2527C55.6929 15.9288 55.5636 16.5197 55.3051 17.0254C55.0494 17.5311 54.6872 17.9245 54.2185 18.2058C53.7497 18.487 53.1957 18.6277 52.5565 18.6277ZM52.5651 17.3919C52.9116 17.3919 53.2014 17.2967 53.4344 17.1064C53.6673 16.9132 53.8406 16.6547 53.9543 16.3308C54.0707 16.0069 54.129 15.6461 54.129 15.2484C54.129 14.8478 54.0707 14.4856 53.9543 14.1618C53.8406 13.8351 53.6673 13.5751 53.4344 13.3819C53.2014 13.1887 52.9116 13.0922 52.5651 13.0922C52.2099 13.0922 51.9145 13.1887 51.6787 13.3819C51.4457 13.5751 51.271 13.8351 51.1545 14.1618C51.0409 14.4856 50.9841 14.8478 50.9841 15.2484C50.9841 15.6461 51.0409 16.0069 51.1545 16.3308C51.271 16.6547 51.4457 16.9132 51.6787 17.1064C51.9145 17.2967 52.2099 17.3919 52.5651 17.3919Z" fill="#0099FF"/>
<path d="M48.6486 13.6845L47.2424 13.8379C47.2026 13.6958 47.133 13.5623 47.0336 13.4373C46.937 13.3123 46.8063 13.2115 46.6415 13.1348C46.4767 13.0581 46.275 13.0197 46.0364 13.0197C45.7154 13.0197 45.4455 13.0893 45.2267 13.2285C45.0108 13.3677 44.9043 13.5481 44.9071 13.7697C44.9043 13.96 44.9739 14.1149 45.1159 14.2342C45.2608 14.3535 45.4995 14.4515 45.8319 14.5282L46.9483 14.7669C47.5676 14.9004 48.0279 15.112 48.329 15.4018C48.633 15.6916 48.7864 16.0708 48.7892 16.5396C48.7864 16.9515 48.6657 17.3152 48.427 17.6305C48.1912 17.943 47.8631 18.1873 47.4426 18.3635C47.0222 18.5396 46.5392 18.6277 45.9938 18.6277C45.1926 18.6277 44.5478 18.46 44.0591 18.1248C43.5705 17.7868 43.2793 17.3166 43.1855 16.7143L44.6898 16.5694C44.758 16.8649 44.9029 17.0879 45.1245 17.2385C45.3461 17.389 45.6344 17.4643 45.9895 17.4643C46.356 17.4643 46.65 17.389 46.8716 17.2385C47.0961 17.0879 47.2083 16.9018 47.2083 16.6802C47.2083 16.4927 47.1358 16.3379 46.9909 16.2157C46.8489 16.0936 46.6273 15.9998 46.3262 15.9345L45.2097 15.7001C44.5819 15.5694 44.1174 15.3493 43.8162 15.0396C43.5151 14.7271 43.3659 14.3322 43.3688 13.8549C43.3659 13.4515 43.4753 13.1021 43.6969 12.8066C43.9213 12.5083 44.2324 12.2782 44.6301 12.1163C45.0307 11.9515 45.4924 11.8691 46.0151 11.8691C46.7821 11.8691 47.3858 12.0325 47.8262 12.3592C48.2694 12.6859 48.5435 13.1277 48.6486 13.6845Z" fill="#0099FF"/>
<path d="M42.2492 9.77246V18.4997H40.7065V9.77246H42.2492Z" fill="#0099FF"/>
<path d="M33.5718 18.4997H31.8843L34.9567 9.77246H36.9084L39.9851 18.4997H38.2976L35.9667 11.5622H35.8985L33.5718 18.4997ZM33.6272 15.0779H38.2294V16.3477H33.6272V15.0779Z" fill="#0099FF"/>
<path d="M12.7424 16.4867V11.5126C12.7424 10.8907 13.4208 10.5066 13.954 10.8266L18.0991 13.3136C18.617 13.6243 18.617 14.3749 18.0991 14.6856L13.954 17.1727C13.4208 17.4926 12.7424 17.1085 12.7424 16.4867Z" fill="#FAF6EF"/>
</svg>
