<svg width="86" height="86" viewBox="0 0 86 86" fill="none" xmlns="http://www.w3.org/2000/svg">
<rect width="86" height="86" rx="20.0667" fill="white"/>
<path fill-rule="evenodd" clip-rule="evenodd" d="M29.3033 35.9032L21.0441 60.0576C20.2255 62.4562 21.372 64.8045 23.6045 65.3178C25.8369 65.8311 28.3098 64.3056 29.1284 61.9141L37.3876 37.7598C38.2038 35.3611 37.0573 33.0128 34.8249 32.5019C32.5924 31.991 30.122 33.5046 29.3033 35.9032ZM43.3077 35.5257L36.6805 55.1208C35.8633 57.54 37.0078 59.9083 39.2363 60.426C41.4648 60.9437 43.9333 59.4051 44.7505 56.9932L51.3777 37.3982C52.1949 34.979 51.0504 32.6107 48.8219 32.0954C46.5934 31.5801 44.1249 33.1042 43.3077 35.5161V35.5257ZM56.8858 35.5257L50.2591 55.1208C49.442 57.54 50.5864 59.9083 52.8147 60.426C55.043 60.9437 57.5114 59.4051 58.3285 56.9932L64.9577 37.3982C65.7724 34.979 64.6279 32.6107 62.3996 32.0954C60.1713 31.5801 57.6932 33.1042 56.8858 35.5161V35.5257ZM33.3882 24.1286C32.5694 26.5561 33.7196 28.9327 35.9591 29.4498C38.1987 29.9668 40.6794 28.4278 41.5007 26.0075C42.3219 23.5873 41.1692 21.2034 38.9297 20.6839C36.6902 20.1644 34.2094 21.6987 33.3882 24.1189V24.1286Z" fill="#2E54FE"/>
</svg>
