<svg width="36" height="36" viewBox="0 0 36 36" fill="none" xmlns="http://www.w3.org/2000/svg">
<rect width="36" height="36" rx="8.4" fill="#FFBC95"/>
<path fill-rule="evenodd" clip-rule="evenodd" d="M12.2665 15.0294L8.80918 25.1405C8.4665 26.1446 8.94646 27.1276 9.88096 27.3425C10.8155 27.5573 11.8506 26.9187 12.1933 25.9177L15.6507 15.8065C15.9923 14.8025 15.5124 13.8195 14.5779 13.6056C13.6434 13.3917 12.6092 14.0253 12.2665 15.0294ZM18.1287 14.8714L15.3545 23.074C15.0124 24.0866 15.4915 25.078 16.4244 25.2947C17.3572 25.5114 18.3906 24.8674 18.7326 23.8578L21.5068 15.6552C21.8489 14.6425 21.3698 13.6511 20.4369 13.4354C19.5041 13.2197 18.4708 13.8577 18.1287 14.8673V14.8714ZM23.8126 14.8714L21.0387 23.074C20.6966 24.0866 21.1757 25.078 22.1085 25.2947C23.0412 25.5114 24.0745 24.8674 24.4166 23.8578L27.1916 15.6552C27.5326 14.6425 27.0535 13.6511 26.1207 13.4354C25.188 13.2197 24.1506 13.8577 23.8126 14.8673V14.8714ZM13.9765 10.1005C13.6338 11.1167 14.1153 12.1115 15.0527 12.3279C15.9902 12.5444 17.0287 11.9001 17.3724 10.887C17.7162 9.87387 17.2337 8.87598 16.2962 8.65852C15.3588 8.44106 14.3203 9.08328 13.9765 10.0964V10.1005Z" fill="#090B0D"/>
</svg>
