<svg width="89" height="21" viewBox="0 0 89 21" fill="none" xmlns="http://www.w3.org/2000/svg">
<path d="M0 7C0 3.13401 3.13401 0 7 0H81.2425C85.1085 0 88.2425 3.13401 88.2425 7V21H0V7Z" fill="#087FF1"/>
<path d="M68.5573 15.0069C67.9437 15.0069 67.4082 14.8663 66.9508 14.585C66.4934 14.3038 66.1383 13.9103 65.8854 13.4047C65.6326 12.899 65.5062 12.3081 65.5062 11.6319C65.5062 10.9529 65.6326 10.3592 65.8854 9.85067C66.1383 9.34215 66.4934 8.94727 66.9508 8.66602C67.4082 8.38477 67.9437 8.24414 68.5573 8.24414C69.1709 8.24414 69.7064 8.38477 70.1638 8.66602C70.6212 8.94727 70.9763 9.34215 71.2292 9.85067C71.482 10.3592 71.6084 10.9529 71.6084 11.6319C71.6084 12.3081 71.482 12.899 71.2292 13.4047C70.9763 13.9103 70.6212 14.3038 70.1638 14.585C69.7064 14.8663 69.1709 15.0069 68.5573 15.0069ZM68.5616 13.9373C68.9593 13.9373 69.2888 13.8322 69.5502 13.622C69.8116 13.4118 70.0047 13.1319 70.1297 12.7825C70.2576 12.4331 70.3215 12.0481 70.3215 11.6277C70.3215 11.21 70.2576 10.8265 70.1297 10.4771C70.0047 10.1248 69.8116 9.84215 69.5502 9.62908C69.2888 9.41602 68.9593 9.30948 68.5616 9.30948C68.161 9.30948 67.8286 9.41602 67.5644 9.62908C67.303 9.84215 67.1084 10.1248 66.9806 10.4771C66.8556 10.8265 66.7931 11.21 66.7931 11.6277C66.7931 12.0481 66.8556 12.4331 66.9806 12.7825C67.1084 13.1319 67.303 13.4118 67.5644 13.622C67.8286 13.8322 68.161 13.9373 68.5616 13.9373Z" fill="#FAF6EF"/>
<path d="M64.8211 8.3299V9.35263H61.2458V8.3299H64.8211ZM62.2046 6.76172H63.4787V12.9535C63.4787 13.2006 63.5157 13.3867 63.5895 13.5117C63.6634 13.6339 63.7586 13.7177 63.875 13.7631C63.9944 13.8058 64.1236 13.8271 64.2628 13.8271C64.3651 13.8271 64.4546 13.82 64.5313 13.8058C64.608 13.7915 64.6677 13.7802 64.7103 13.7717L64.9404 14.8242C64.8665 14.8526 64.7614 14.881 64.625 14.9094C64.4887 14.9407 64.3182 14.9577 64.1137 14.9606C63.7785 14.9663 63.466 14.9066 63.1762 14.7816C62.8864 14.6566 62.652 14.4634 62.4731 14.2021C62.2941 13.9407 62.2046 13.6126 62.2046 13.2177V6.76172Z" fill="#FAF6EF"/>
<path d="M54.8365 15.0069C54.2229 15.0069 53.6874 14.8663 53.23 14.585C52.7726 14.3038 52.4175 13.9103 52.1647 13.4047C51.9118 12.899 51.7854 12.3081 51.7854 11.6319C51.7854 10.9529 51.9118 10.3592 52.1647 9.85067C52.4175 9.34215 52.7726 8.94727 53.23 8.66602C53.6874 8.38477 54.2229 8.24414 54.8365 8.24414C55.4502 8.24414 55.9857 8.38477 56.4431 8.66602C56.9005 8.94727 57.2556 9.34215 57.5084 9.85067C57.7613 10.3592 57.8877 10.9529 57.8877 11.6319C57.8877 12.3081 57.7613 12.899 57.5084 13.4047C57.2556 13.9103 56.9005 14.3038 56.4431 14.585C55.9857 14.8663 55.4502 15.0069 54.8365 15.0069ZM54.8408 13.9373C55.2385 13.9373 55.5681 13.8322 55.8294 13.622C56.0908 13.4118 56.284 13.1319 56.409 12.7825C56.5368 12.4331 56.6007 12.0481 56.6007 11.6277C56.6007 11.21 56.5368 10.8265 56.409 10.4771C56.284 10.1248 56.0908 9.84215 55.8294 9.62908C55.5681 9.41602 55.2385 9.30948 54.8408 9.30948C54.4402 9.30948 54.1078 9.41602 53.8436 9.62908C53.5823 9.84215 53.3877 10.1248 53.2598 10.4771C53.1348 10.8265 53.0723 11.21 53.0723 11.6277C53.0723 12.0481 53.1348 12.4331 53.2598 12.7825C53.3877 13.1319 53.5823 13.4118 53.8436 13.622C54.1078 13.8322 54.4402 13.9373 54.8408 13.9373Z" fill="#FAF6EF"/>
<path d="M47.7775 17.4657C47.2576 17.4657 46.8102 17.3976 46.4352 17.2612C46.063 17.1248 45.759 16.9444 45.5232 16.72C45.2875 16.4956 45.1113 16.2498 44.9948 15.9828L46.09 15.5311C46.1667 15.6561 46.269 15.7882 46.3968 15.9274C46.5275 16.0694 46.7036 16.1902 46.9252 16.2896C47.1497 16.389 47.438 16.4387 47.7903 16.4387C48.2732 16.4387 48.6724 16.3208 48.9877 16.085C49.3031 15.8521 49.4608 15.4799 49.4608 14.9686V13.6816H49.3798C49.3031 13.8208 49.1923 13.9757 49.0474 14.1461C48.9054 14.3166 48.7093 14.4643 48.4593 14.5893C48.2093 14.7143 47.884 14.7768 47.4835 14.7768C46.9664 14.7768 46.5005 14.6561 46.0857 14.4146C45.6738 14.1703 45.3471 13.8109 45.1056 13.3365C44.867 12.8592 44.7477 12.2725 44.7477 11.5765C44.7477 10.8805 44.8656 10.2839 45.1014 9.78675C45.34 9.2896 45.6667 8.90891 46.0815 8.64471C46.4963 8.37766 46.9664 8.24414 47.492 8.24414C47.8982 8.24414 48.2264 8.31232 48.4764 8.44869C48.7264 8.58221 48.921 8.73846 49.0602 8.91744C49.2022 9.09641 49.3116 9.25408 49.3883 9.39045H49.4821V8.32937H50.7306V15.0197C50.7306 15.5822 50.6 16.0439 50.3386 16.4047C50.0772 16.7654 49.7235 17.0325 49.2775 17.2058C48.8343 17.3791 48.3343 17.4657 47.7775 17.4657ZM47.7647 13.72C48.1312 13.72 48.4409 13.6348 48.6937 13.4643C48.9494 13.291 49.1426 13.0439 49.2733 12.7228C49.4068 12.399 49.4735 12.0112 49.4735 11.5595C49.4735 11.1191 49.4082 10.7314 49.2775 10.3961C49.1468 10.0609 48.9551 9.79954 48.7022 9.61204C48.4494 9.4217 48.1369 9.32653 47.7647 9.32653C47.3812 9.32653 47.0616 9.42596 46.8059 9.62482C46.5502 9.82085 46.3571 10.0879 46.2264 10.426C46.0985 10.764 46.0346 11.1419 46.0346 11.5595C46.0346 11.9885 46.1 12.3649 46.2306 12.6887C46.3613 13.0126 46.5545 13.2654 46.8102 13.4473C47.0687 13.6291 47.3869 13.72 47.7647 13.72Z" fill="#FAF6EF"/>
<path d="M36.5859 17.3301C36.3956 17.3301 36.2223 17.3145 36.066 17.2832C35.9098 17.2548 35.7933 17.2235 35.7166 17.1895L36.0234 16.1454C36.2564 16.2079 36.4638 16.2349 36.6456 16.2264C36.8274 16.2179 36.9879 16.1497 37.1271 16.0218C37.2692 15.894 37.3942 15.6852 37.5021 15.3954L37.6598 14.9608L35.2649 8.33008H36.6285L38.2862 13.4096H38.3544L40.0121 8.33008H41.3799L38.6825 15.7491C38.5575 16.09 38.3984 16.3784 38.2052 16.6142C38.0121 16.8528 37.7819 17.0318 37.5149 17.1511C37.2478 17.2704 36.9382 17.3301 36.5859 17.3301Z" fill="#FAF6EF"/>
<path d="M25.4733 6.14746H27.0713L29.8497 12.9316H29.952L32.7304 6.14746H34.3284V14.8747H33.0755V8.55939H32.9946L30.4207 14.8619H29.3809L26.8071 8.55513H26.7261V14.8747H25.4733V6.14746Z" fill="#FAF6EF"/>
<rect x="8.24249" y="6" width="8.76251" height="8.76251" stroke="#FAF6EF"/>
</svg>
